<svg width="560" height="280" viewBox="0 0 560 280" xmlns="http://www.w3.org/2000/svg">
  <defs>
    <linearGradient id="g1" x1="0" y1="0" x2="1" y2="1">
      <stop offset="0" stop-color="#0ea5e9"></stop>
      <stop offset="1" stop-color="#22d3ee"></stop>
    </linearGradient>
  </defs>
  <rect width="560" height="280" rx="16" fill="#0b1220"></rect>
  <g transform="translate(24,24)">
    <rect x="0" y="0" width="512" height="180" rx="10" fill="#111827" stroke="#1f2937"></rect>
    <g>
      <rect x="24" y="48" width="40" height="112" fill="url(#g1)" rx="6"></rect>
      <rect x="84" y="72" width="40" height="88" fill="#334155" rx="6"></rect>
      <rect x="144" y="36" width="40" height="124" fill="url(#g1)" rx="6"></rect>
      <rect x="204" y="96" width="40" height="64" fill="#334155" rx="6"></rect>
      <rect x="264" y="56" width="40" height="104" fill="url(#g1)" rx="6"></rect>
      <rect x="324" y="84" width="40" height="76" fill="#334155" rx="6"></rect>
      <rect x="384" y="44" width="40" height="116" fill="url(#g1)" rx="6"></rect>
      <rect x="444" y="108" width="40" height="52" fill="#334155" rx="6"></rect>
    </g>
    <text x="0" y="212" fill="#93c5fd" font-family="Segoe UI" font-size="18" font-weight="700">Estoque saudável, risco e reposição</text>
    <text x="0" y="236" fill="#cbd5e1" font-family="Segoe UI" font-size="13">Visual de níveis por produto/categoria</text>
  </g>
</svg>
