<svg xmlns="http://www.w3.org/2000/svg" viewBox="0 0 36 36">
  <rect width="36" height="36" fill="#b22234"></rect>
  <g fill="#fff">
    <rect y="3" width="36" height="3"></rect>
    <rect y="9" width="36" height="3"></rect>
    <rect y="15" width="36" height="3"></rect>
    <rect y="21" width="36" height="3"></rect>
    <rect y="27" width="36" height="3"></rect>
    <rect y="33" width="36" height="3"></rect>
  </g>
  <rect width="16.2" height="18" fill="#3c3b6e"></rect>
  <g fill="#fff">
    <circle cx="2" cy="2" r="0.6"></circle><circle cx="5" cy="2" r="0.6"></circle><circle cx="8" cy="2" r="0.6"></circle><circle cx="11" cy="2" r="0.6"></circle><circle cx="14" cy="2" r="0.6"></circle>
    <circle cx="3.5" cy="4.5" r="0.6"></circle><circle cx="6.5" cy="4.5" r="0.6"></circle><circle cx="9.5" cy="4.5" r="0.6"></circle><circle cx="12.5" cy="4.5" r="0.6"></circle>
    <circle cx="2" cy="7" r="0.6"></circle><circle cx="5" cy="7" r="0.6"></circle><circle cx="8" cy="7" r="0.6"></circle><circle cx="11" cy="7" r="0.6"></circle><circle cx="14" cy="7" r="0.6"></circle>
    <circle cx="3.5" cy="9.5" r="0.6"></circle><circle cx="6.5" cy="9.5" r="0.6"></circle><circle cx="9.5" cy="9.5" r="0.6"></circle><circle cx="12.5" cy="9.5" r="0.6"></circle>
    <circle cx="2" cy="12" r="0.6"></circle><circle cx="5" cy="12" r="0.6"></circle><circle cx="8" cy="12" r="0.6"></circle><circle cx="11" cy="12" r="0.6"></circle><circle cx="14" cy="12" r="0.6"></circle>
    <circle cx="3.5" cy="14.5" r="0.6"></circle><circle cx="6.5" cy="14.5" r="0.6"></circle><circle cx="9.5" cy="14.5" r="0.6"></circle><circle cx="12.5" cy="14.5" r="0.6"></circle>
  </g>
</svg>
